<svg xmlns="http://www.w3.org/2000/svg" width="auto" height="auto" viewBox="0 0 24 24">
    <g fill="none" fill-rule="evenodd">
        <g fill-rule="nonzero">
            <g>
                <g>
                    <g>
                        <g>
                            <g>
                                <path fill="#444" d="M1.533 2.512C.667 2.512 0 3.112 0 3.98v7.933c.067.734.733 1.267 1.533 1.267h6.6l2 2.333c.134.067.267.134.467.067.2 0 .333-.133.4-.267l1.733-2.133h1.4c.867 0 1.534-.6 1.534-1.467V6.78H15.6c-.133 0-.333.067-.6.067-.133 0-.2 0-.267-.067h-.066v4.867c0 .2-.2.466-.534.466h-1.866l-1.934 2.267-1.8-2.267h-7c-.333 0-.533-.266-.533-.466V3.979c0-.2.2-.467.533-.467h9.734v-.4c0-.2 0-.4.066-.6h-9.8z" transform="translate(-1778 -217) translate(0 172) translate(1546 30) translate(12 15) translate(220) translate(3.8 4)"/>
                                <path fill="#444" d="M2.667 6.379c0 .267.2.467.466.467h6.534c.2 0 .4-.2.4-.467 0-.333-.267-.533-.534-.533H3.067c-.2 0-.4.266-.4.533zM6.333 8.579h-3.4c-.2 0-.4.2-.4.467 0 .333.267.533.534.533h3.4c.2 0 .4-.2.4-.467 0-.333-.267-.533-.534-.533z" transform="translate(-1778 -217) translate(0 172) translate(1546 30) translate(12 15) translate(220) translate(3.8 4)"/>
                                <g fill="#19AF5C">
                                    <path d="M3.067.2c.27 0 .493.176.528.403L3.6.667v1.866h1.733c.258 0 .467.24.467.534 0 .27-.176.493-.403.528l-.064.005L3.6 3.599v1.734c0 .258-.239.467-.533.467-.27 0-.493-.176-.529-.403l-.005-.064V3.6L.667 3.6C.409 3.6.2 3.361.2 3.067c0-.27.176-.493.403-.529l.064-.005h1.866V.667c0-.258.24-.467.534-.467z" transform="translate(-1778 -217) translate(0 172) translate(1546 30) translate(12 15) translate(220) translate(3.8 4) translate(12.14)"/>
                                </g>
                            </g>
                        </g>
                    </g>
                </g>
            </g>
        </g>
    </g>
</svg>
